<svg width="24" height="24" viewBox="0 0 24 24" fill="none" xmlns="http://www.w3.org/2000/svg">
    <path
        d="M7.16822 3C5.61955 3 4.31906 4.17849 4.20683 5.72309C4.1481 6.53145 4.10187 7.30029 4.06814 8.04675C3.17117 8.24417 2.5 9.0437 2.5 10V11.2C2.5 11.6418 2.85817 12 3.3 12H3.5C3.68474 12 3.85777 11.9499 4.00627 11.8626C4.02988 13.5251 4.12021 15.2284 4.27745 17.1828C4.35327 18.1253 5.08467 18.8649 6.00014 18.9834C6.00005 18.9889 6 18.9945 6 19V20C6 20.5523 6.44772 21 7 21H7.5C8.05228 21 8.5 20.5523 8.5 20V19H15.5V20C15.5 20.5523 15.9477 21 16.5 21H17C17.5523 21 18 20.5523 18 20V19C18 18.993 17.9999 18.986 17.9998 18.979C18.8902 18.8492 19.601 18.1307 19.6863 17.2111C19.8673 15.2589 19.9701 13.5506 19.9944 11.8629C20.1427 11.95 20.3155 12 20.5 12H20.7C21.1418 12 21.5 11.6418 21.5 11.2V10C21.5 9.03893 20.8221 8.23619 19.9184 8.04384C19.8793 7.29202 19.8263 6.5143 19.7591 5.69387C19.6338 4.16201 18.3387 3 16.8017 3H7.16822ZM7 8H17C17.5523 8 18 8.44772 18 9V13C18 13.5523 17.5523 14 17 14H7C6.44772 14 6 13.5523 6 13V9C6 8.44772 6.44772 8 7 8ZM17 17C16.4477 17 16 16.5523 16 16C16 15.4477 16.4477 15 17 15C17.5523 15 18 15.4477 18 16C18 16.5523 17.5523 17 17 17ZM8 16C8 16.5523 7.55229 17 7 17C6.44772 17 6 16.5523 6 16C6 15.4477 6.44772 15 7 15C7.55229 15 8 15.4477 8 16Z"
        fill="#A2A7AA" />
</svg>
    