<svg width="12" height="12" viewBox="0 0 12 12" fill="none" xmlns="http://www.w3.org/2000/svg">
    <path
        d="M7.33317 0.666748C6.96498 0.666748 6.6665 0.965225 6.6665 1.33341C6.6665 1.7016 6.96498 2.00008 7.33317 2.00008H9.02349L5.29582 5.72775C5.03547 5.9881 5.03547 6.41021 5.29582 6.67056C5.55617 6.93091 5.97828 6.93091 6.23863 6.67056L9.99984 2.90935V4.66675C9.99984 5.03494 10.2983 5.33341 10.6665 5.33341C11.0347 5.33341 11.3332 5.03494 11.3332 4.66675V1.33341C11.3332 0.965225 11.0347 0.666748 10.6665 0.666748H7.33317Z"
        fill="#2362AF" />
    <path
        d="M0.680048 1.86572C0.742212 1.56194 1.011 1.33341 1.33317 1.33341C1.33309 1.33341 1.33325 1.33341 1.33317 1.33341H3.99984C4.36803 1.33341 4.6665 1.63189 4.6665 2.00008C4.6665 2.36827 4.36803 2.66675 3.99984 2.66675H1.99984L1.99984 10.0001H9.33317V8.00008C9.33317 7.63189 9.63165 7.33341 9.99984 7.33341C10.368 7.33341 10.6665 7.63189 10.6665 8.00008V10.6667C10.6665 11.0349 10.368 11.3334 9.99984 11.3334H1.33317C1.31016 11.3334 1.28742 11.3322 1.26501 11.33C0.928837 11.2958 0.666504 11.0119 0.666504 10.6667V2.00008C0.666504 1.95406 0.671168 1.90912 0.680048 1.86572Z"
        fill="#2362AF" />
</svg>
    